<?xml version="1.0" encoding="UTF-8"?>
<svg version="1.1" xmlns="http://www.w3.org/2000/svg" width="500" height="500">
<path d="M0 0 C2 2 2 2 2 3 C4.31 3.66 6.62 4.32 9 5 C9 5.66 9 6.32 9 7 C9.928125 6.938125 10.85625 6.87625 11.8125 6.8125 C15.50121492 7.02948323 15.64093256 7.44434361 18 10 C19.9959722 10.67863055 21.99568551 11.34641919 24 12 C24.495 12.99 24.495 12.99 25 14 C26.66128463 14.35919668 28.32900023 14.68911632 30 15 C31.34838722 15.63566826 32.68078822 16.30580803 34 17 C35.35364997 17.68851678 36.70781502 18.37602187 38.0625 19.0625 C38.73410156 19.40410156 39.40570313 19.74570313 40.09765625 20.09765625 C42.14328314 21.11490381 42.14328314 21.11490381 45 22 C45.495 22.99 45.495 22.99 46 24 C46.763125 24.144375 47.52625 24.28875 48.3125 24.4375 C51.2868736 25.06004331 52.62680391 26.18054966 55 28 C55.99 28 56.98 28 58 28 C58.495 29.485 58.495 29.485 59 31 C60.7015625 31.185625 60.7015625 31.185625 62.4375 31.375 C64.2009375 31.684375 64.2009375 31.684375 66 32 C66.33 32.66 66.66 33.32 67 34 C69.52733235 34.65555119 69.52733235 34.65555119 72 35 C72 35.99 72 36.98 72 38 C72.66 38.33 73.32 38.66 74 39 C73.77192509 40.79458945 73.51677697 42.58575449 73.25 44.375 C73.11078125 45.37273437 72.9715625 46.37046875 72.828125 47.3984375 C72 50 72 50 69.95703125 51.23046875 C68.98830078 51.61138672 68.98830078 51.61138672 68 52 C67.40929986 53.94603274 67.40929986 53.94603274 67 56 C65.625 57.75 65.625 57.75 64 59 C63.01 59 62.02 59 61 59 C60.773125 59.639375 60.54625 60.27875 60.3125 60.9375 C59 63 59 63 56.4375 63.625 C55.633125 63.74875 54.82875 63.8725 54 64 C53.67 64.66 53.34 65.32 53 66 C47.35035334 67.20205248 41.75350608 67.09052719 36 67 C35.01 67 34.02 67 33 67 C29.375 66.125 29.375 66.125 26 65 C25.67 64.34 25.34 63.68 25 63 C23.33871537 62.64080332 21.67099977 62.31088368 20 62 C17.6875 60.9375 17.6875 60.9375 16 60 C15.71125 60.5775 15.4225 61.155 15.125 61.75 C14.4249876 63.1500248 13.71790244 64.54656402 13 65.9375 C11.92472077 68.07199814 11.92472077 68.07199814 11 70.6875 C10 73 10 73 8 74 C8.11341534 76.40877257 8.11341534 76.40877257 9 79 C11.28643812 80.77195874 11.28643812 80.77195874 14 82 C14.680625 82.350625 15.36125 82.70125 16.0625 83.0625 C17.42994996 83.72416933 18.8058991 84.36841102 20.1875 85 C22 86 22 86 23 88 C23.99 88 24.98 88 26 88 C26 88.66 26 89.32 26 90 C27.3303125 90.37125 27.3303125 90.37125 28.6875 90.75 C33.42650192 92.53830261 36.19956335 94.79934503 39 99 C40.7662221 100.5663494 42.59672339 102.0273218 44.44140625 103.5 C46 105 46 105 47 108 C47.680625 108.495 48.36125 108.99 49.0625 109.5 C49.701875 109.995 50.34125 110.49 51 111 C51 111.99 51 112.98 51 114 C51.61875 114.2475 52.2375 114.495 52.875 114.75 C55.38895216 116.22879539 55.8534051 117.37921165 57 120 C57.66 120.66 58.32 121.32 59 122 C60.71503261 124.67545087 61.9919071 126.9757213 63 130 C63.66 130.33 64.32 130.66 65 131 C66.10511341 133.70685674 66.98683351 136.46209838 67.90234375 139.23828125 C68.97034933 141.92539848 70.262173 143.72151571 72 146 C72.35236497 147.99673484 72.68834559 149.99650739 73 152 C73.66 152.33 74.32 152.66 75 153 C75.35840222 155.32961443 75.68848712 157.66365343 76 160 C76.6590841 161.66967972 77.32650839 163.33607955 78 165 C78.74237563 167.98465305 79.38299194 170.98716276 80 174 C81.27186749 168.8898181 82.12920665 164.29747254 82 159 C82.33 158.34 82.66 157.68 83 157 C83.27571479 153.91899659 83.44663533 150.83828524 83.62109375 147.75 C84 145 84 145 86 143 C86.39033805 140.87086605 86.39033805 140.87086605 86.5 138.4375 C87.57664161 125.42335839 87.57664161 125.42335839 91 122 C94.3947751 122.32852662 95.67361236 123.67361236 98 126 C99.32488113 126.36548445 100.66018514 126.6937566 102 127 C104.01526169 127.96887581 106.01833966 128.9641321 108 130 C108 130.66 108 131.32 108 132 C108.721875 131.9175 109.44375 131.835 110.1875 131.75 C113.85420076 132.07592896 115.23331546 133.65895924 118 136 C120.18214568 136.77833534 120.18214568 136.77833534 122 137 C122 137.66 122 138.32 122 139 C126.40468596 138.2857266 128.8974238 137.1359876 132.0625 133.875 C134 132 134 132 136 132 C136.268125 131.360625 136.53625 130.72125 136.8125 130.0625 C138 128 138 128 141 127 C141.185625 126.0409375 141.185625 126.0409375 141.375 125.0625 C141.58125 124.381875 141.7875 123.70125 142 123 C142.804375 122.71125 143.60875 122.4225 144.4375 122.125 C145.283125 121.75375 146.12875 121.3825 147 121 C148.22520264 117.99152582 148.22520264 117.99152582 149 115 C149.66 114.67 150.32 114.34 151 114 C151.33 113.34 151.66 112.68 152 112 C152.66 112 153.32 112 154 112 C154.33 111.34 154.66 110.68 155 110 C155.33 109.34 155.66 108.68 156 108 C156.66 108 157.32 108 158 108 C158.33 107.01 158.66 106.02 159 105 C159.99 104.34 160.98 103.68 162 103 C162.639375 102.319375 163.27875 101.63875 163.9375 100.9375 C166.10778853 98.89874411 167.17257839 98.57256763 170 98 C169.89035323 102.43801996 169.75966846 106.87517436 169.625 111.3125 C169.5940625 112.57513672 169.563125 113.83777344 169.53125 115.13867188 C169.47324219 116.95141602 169.47324219 116.95141602 169.4140625 118.80078125 C169.3826416 119.91622314 169.3512207 121.03166504 169.31884766 122.1809082 C169 125 169 125 167 128 C166.855625 128.99 166.71125 129.98 166.5625 131 C165.94756311 134.2796634 165.35186972 134.84411943 163 137 C162.64587656 138.32796291 162.31478446 139.66216607 162 141 C161.03114628 142.68496298 160.03013277 144.35178756 159 146 C157.87079373 148.07021149 157.05216361 149.75408585 156.5625 152.0625 C155.87642222 154.4256568 154.71789489 155.28210511 153 157 C152.64587656 158.32796291 152.31478446 159.66216607 152 161 C151.01810813 162.67739862 150.01866229 164.34467377 149 166 C148.67 166.99 148.34 167.98 148 169 C147.34 169 146.68 169 146 169 C146.0825 169.721875 146.165 170.44375 146.25 171.1875 C145.92407104 174.85420076 144.34104076 176.23331546 142 179 C141.3574765 181.06874034 141.3574765 181.06874034 141 183 C140.34 183.99 139.68 184.98 139 186 C137.86252091 188.1327733 136.89826822 190.25432946 136 192.5 C134.74986642 195.62533396 133.4393691 198.39354129 131.46061707 201.12480164 C129.60319857 204.78109647 129.55991341 207.99566736 129.56762695 212.00317383 C129.55735316 212.80666354 129.54707937 213.61015326 129.53649426 214.43799114 C129.50670749 217.02774862 129.49708037 219.61712644 129.48828125 222.20703125 C129.47280954 223.81035684 129.45601167 225.41367021 129.43786621 227.01696777 C129.38001313 232.94867692 129.34780137 238.88061377 129.3125 244.8125 C129.1578125 264.7053125 129.1578125 264.7053125 129 285 C86.43 285 43.86 285 0 285 C-1 283 -1 283 -0.5 280.125 C-0.02899652 277.18122824 -0.17915693 275.77034537 -1 273 C-0.67 272.67 -0.34 272.34 0 272 C0.26630559 270.03599624 0.52730874 268.07098832 0.75 266.1015625 C0.94573385 264.45617485 1.20997171 262.81890916 1.5 261.1875 C2.09993219 257.3629323 2.41229981 253.54158275 2.71875 249.68359375 C3.08009451 246.23576487 3.42068125 243.1189883 5.02734375 240.015625 C6.2246331 237.53449526 6.37835285 235.49261708 6.5625 232.75 C6.63726562 231.77675781 6.71203125 230.80351562 6.7890625 229.80078125 C6.85867187 228.87652344 6.92828125 227.95226562 7 227 C7.52693418 221.6428358 8.49363023 216.44217496 9.6953125 211.19921875 C10.18934412 208.82898854 10.18934412 208.82898854 9 206 C9.66 206 10.32 206 11 206 C10.690625 204.63875 10.690625 204.63875 10.375 203.25 C9.96575217 199.70318545 10.32445791 198.9787415 12 196 C12.38290462 194.00889599 12.72604615 192.00899487 13 190 C12.01 189.67 11.02 189.34 10 189 C9.3125 186.9375 9.3125 186.9375 9 185 C8.34 185 7.68 185 7 185 C6.67 184.01 6.34 183.02 6 182 C5.54625 181.54625 5.0925 181.0925 4.625 180.625 C2.61824957 178.61824957 1.42610955 176.45290843 0 174 C-2.57483797 169.91387844 -2.57483797 169.91387844 -5.75 166.3125 C-7 165 -7 165 -7 162 C-7.99 161.67 -8.98 161.34 -10 161 C-10.144375 160.401875 -10.28875 159.80375 -10.4375 159.1875 C-11.1969311 156.23415685 -12.82445603 155.11338557 -15 153 C-16.36363208 151.02053408 -17.69418644 149.0180755 -19 147 C-20.3391165 145.19660529 -21.68408642 143.39886267 -23.046875 141.61328125 C-24 140 -24 140 -24 137 C-24.99 136.67 -25.98 136.34 -27 136 C-28.0625 134.1875 -28.0625 134.1875 -29 132 C-30.0356281 129.72161818 -30.84706318 128.15293682 -32.625 126.375 C-33.07875 125.92125 -33.5325 125.4675 -34 125 C-34 124.34 -34 123.68 -34 123 C-34.66 122.67 -35.32 122.34 -36 122 C-37.2890625 120.4765625 -37.2890625 120.4765625 -38.625 118.625 C-39.07101563 118.01914063 -39.51703125 117.41328125 -39.9765625 116.7890625 C-41 115 -41 115 -41 112 C-42.32 111.67 -43.64 111.34 -45 111 C-45 110.34 -45 109.68 -45 109 C-45.66 108.67 -46.32 108.34 -47 108 C-47.34342449 106.66923011 -47.67619874 105.33568021 -48 104 C-49.32328571 102.67671429 -50.67776978 101.38384565 -52.0625 100.125 C-54.09872732 97.89171842 -54.35791991 96.84349755 -55 94 C-55.98020375 92.9805881 -56.97803008 91.97753644 -58 91 C-58 90.34 -58 89.68 -58 89 C-58.99 88.34 -59.98 87.68 -61 87 C-61.328125 84.72265625 -61.328125 84.72265625 -61.25 82.0625 C-61.23453125 81.18722656 -61.2190625 80.31195313 -61.203125 79.41015625 C-61 77 -61 77 -60 74 C-59.01 73.505 -59.01 73.505 -58 73 C-57.7834375 72.01 -57.7834375 72.01 -57.5625 71 C-57.2840625 70.01 -57.2840625 70.01 -57 69 C-55.515 68.505 -55.515 68.505 -54 68 C-53.896875 67.278125 -53.79375 66.55625 -53.6875 65.8125 C-52.56201018 61.20822347 -50.28122468 58.28122468 -47 55 C-46.505 54.175 -46.01 53.35 -45.5 52.5 C-44 50 -44 50 -42.375 48.4375 C-40.71515152 46.70220387 -40.40263517 45.33528396 -40 43 C-39.34 43 -38.68 43 -38 43 C-37.9175 42.29875 -37.835 41.5975 -37.75 40.875 C-36.60263558 36.47676973 -34.19117306 33.19117306 -31 30 C-30.67 29.01 -30.34 28.02 -30 27 C-29 26 -28 25 -27 24 C-26.505 22.515 -26.505 22.515 -26 21 C-25.34 20.34 -24.68 19.68 -24 19 C-23.67 18.34 -23.34 17.68 -23 17 C-22.34 17 -21.68 17 -21 17 C-20.79375 16.195625 -20.5875 15.39125 -20.375 14.5625 C-18.3473939 9.30915693 -15.75054126 3.41053398 -10.5625 0.75 C-6.81564477 -0.34664055 -3.90157264 -0.25584083 0 0 Z M-9 159 C-8 161 -8 161 -8 161 Z M11 200 C12 202 12 202 12 202 Z M59 204 C59.36351562 204.42410156 59.72703125 204.84820312 60.1015625 205.28515625 C61.734375 207.19010417 63.3671875 209.09505208 65 211 C65.50200928 211.44005371 66.00401855 211.88010742 66.52124023 212.33349609 C70.42625546 216.07156072 71.43228453 218.94192025 71.76953125 224.34375 C71.81311211 226.72881154 71.8266225 229.11458214 71.8125 231.5 C71.83689372 233.88544866 71.86415266 236.27087005 71.89453125 238.65625 C71.90307129 239.76097656 71.91161133 240.86570312 71.92041016 242.00390625 C72.01129079 245.42503231 72.38210387 248.63864507 73 252 C73.66 251.01 74.32 250.02 75 249 C75.66 249.33 76.32 249.66 77 250 C77.02578125 249.175 77.0515625 248.35 77.078125 247.5 C77.41895091 240.55954507 78.22508937 234.0545363 79.875 227.3125 C80.03645508 226.62994141 80.19791016 225.94738281 80.36425781 225.24414062 C81.79733568 219.70661645 83.87931333 217.65881834 88.4375 214.5625 C91.24590852 212.59899404 93.66330035 210.52363562 96 208 C94.72125 207.979375 93.4425 207.95875 92.125 207.9375 C91.40570313 207.92589844 90.68640625 207.91429687 89.9453125 207.90234375 C87.91814596 207.87350758 87.91814596 207.87350758 86 209 C80.85739534 209.30250616 76.90642738 208.43809078 72 207 C69.70534115 206.71560255 67.41952266 206.50760374 65.11328125 206.34375 C62.76765414 205.96220622 61.06377039 205.15533873 59 204 Z M75 251 C76 253 76 253 76 253 Z " fill="#05A4F5" transform="translate(189,134)"/>
<path d="M0 0 C2 2 2 2 2 3 C4.31 3.66 6.62 4.32 9 5 C9 5.66 9 6.32 9 7 C9.928125 6.938125 10.85625 6.87625 11.8125 6.8125 C15.50121492 7.02948323 15.64093256 7.44434361 18 10 C19.9959722 10.67863055 21.99568551 11.34641919 24 12 C24.495 12.99 24.495 12.99 25 14 C26.66128463 14.35919668 28.32900023 14.68911632 30 15 C31.34838722 15.63566826 32.68078822 16.30580803 34 17 C35.35364997 17.68851678 36.70781502 18.37602187 38.0625 19.0625 C38.73410156 19.40410156 39.40570313 19.74570313 40.09765625 20.09765625 C42.14328314 21.11490381 42.14328314 21.11490381 45 22 C45.495 22.99 45.495 22.99 46 24 C46.763125 24.144375 47.52625 24.28875 48.3125 24.4375 C51.2868736 25.06004331 52.62680391 26.18054966 55 28 C55.99 28 56.98 28 58 28 C58.495 29.485 58.495 29.485 59 31 C60.7015625 31.185625 60.7015625 31.185625 62.4375 31.375 C64.2009375 31.684375 64.2009375 31.684375 66 32 C66.33 32.66 66.66 33.32 67 34 C69.52733235 34.65555119 69.52733235 34.65555119 72 35 C72 35.99 72 36.98 72 38 C72.66 38.33 73.32 38.66 74 39 C73.77192509 40.79458945 73.51677697 42.58575449 73.25 44.375 C73.11078125 45.37273437 72.9715625 46.37046875 72.828125 47.3984375 C72 50 72 50 69.95703125 51.23046875 C68.98830078 51.61138672 68.98830078 51.61138672 68 52 C67.40929986 53.94603274 67.40929986 53.94603274 67 56 C65.625 57.75 65.625 57.75 64 59 C63.01 59 62.02 59 61 59 C60.773125 59.639375 60.54625 60.27875 60.3125 60.9375 C59 63 59 63 56.4375 63.625 C55.633125 63.74875 54.82875 63.8725 54 64 C53.67 64.66 53.34 65.32 53 66 C47.35035334 67.20205248 41.75350608 67.09052719 36 67 C35.01 67 34.02 67 33 67 C29.375 66.125 29.375 66.125 26 65 C25.67 64.34 25.34 63.68 25 63 C23.33871537 62.64080332 21.67099977 62.31088368 20 62 C17.6875 60.9375 17.6875 60.9375 16 60 C15.71125 60.5775 15.4225 61.155 15.125 61.75 C14.4249876 63.1500248 13.71790244 64.54656402 13 65.9375 C11.92472077 68.07199814 11.92472077 68.07199814 11 70.6875 C10 73 10 73 8 74 C8.11341534 76.40877257 8.11341534 76.40877257 9 79 C11.28643812 80.77195874 11.28643812 80.77195874 14 82 C14.680625 82.350625 15.36125 82.70125 16.0625 83.0625 C17.42994996 83.72416933 18.8058991 84.36841102 20.1875 85 C22 86 22 86 23 88 C23.99 88 24.98 88 26 88 C26 88.66 26 89.32 26 90 C27.3303125 90.37125 27.3303125 90.37125 28.6875 90.75 C33.42650192 92.53830261 36.19956335 94.79934503 39 99 C40.7662221 100.5663494 42.59672339 102.0273218 44.44140625 103.5 C46 105 46 105 47 108 C47.680625 108.495 48.36125 108.99 49.0625 109.5 C49.701875 109.995 50.34125 110.49 51 111 C51 111.99 51 112.98 51 114 C51.61875 114.2475 52.2375 114.495 52.875 114.75 C55.38895216 116.22879539 55.8534051 117.37921165 57 120 C57.66 120.66 58.32 121.32 59 122 C60.71503261 124.67545087 61.9919071 126.9757213 63 130 C63.66 130.33 64.32 130.66 65 131 C65.73401257 132.7862884 66.39001031 134.60514816 67 136.4375 C68.33336865 140.62213295 68.33336865 140.62213295 71 144 C71 144.99 71 145.98 71 147 C65.69619919 145.74383665 61.95100639 143.02646821 57.61328125 139.88671875 C53.81654168 137.14557494 49.90880296 134.57754398 46 132 C45.67 132.66 45.34 133.32 45 134 C44.34773438 133.73445312 43.69546875 133.46890625 43.0234375 133.1953125 C42.14945312 132.84210938 41.27546875 132.48890625 40.375 132.125 C39.08722656 131.60292969 39.08722656 131.60292969 37.7734375 131.0703125 C34.88283251 129.95478325 31.93938811 128.97979604 29 128 C29 136.58 29 145.16 29 154 C25.37 154 21.74 154 18 154 C14.53763768 154.34426035 14.53763768 154.34426035 12 156 C10.94647157 158.30965848 9.94280904 160.6429774 9 163 C5.72096869 164.37507765 2.25715881 164.10062129 -1.25 164.0625 C-2.32765625 164.05347656 -3.4053125 164.04445313 -4.515625 164.03515625 C-5.33546875 164.02355469 -6.1553125 164.01195312 -7 164 C-7 163.34 -7 162.68 -7 162 C-7.99 161.67 -8.98 161.34 -10 161 C-10.144375 160.401875 -10.28875 159.80375 -10.4375 159.1875 C-11.1969311 156.23415685 -12.82445603 155.11338557 -15 153 C-16.36363208 151.02053408 -17.69418644 149.0180755 -19 147 C-20.3391165 145.19660529 -21.68408642 143.39886267 -23.046875 141.61328125 C-24 140 -24 140 -24 137 C-24.99 136.67 -25.98 136.34 -27 136 C-28.0625 134.1875 -28.0625 134.1875 -29 132 C-30.0356281 129.72161818 -30.84706318 128.15293682 -32.625 126.375 C-33.07875 125.92125 -33.5325 125.4675 -34 125 C-34 124.34 -34 123.68 -34 123 C-34.66 122.67 -35.32 122.34 -36 122 C-37.2890625 120.4765625 -37.2890625 120.4765625 -38.625 118.625 C-39.07101563 118.01914063 -39.51703125 117.41328125 -39.9765625 116.7890625 C-41 115 -41 115 -41 112 C-42.32 111.67 -43.64 111.34 -45 111 C-45 110.34 -45 109.68 -45 109 C-45.66 108.67 -46.32 108.34 -47 108 C-47.34342449 106.66923011 -47.67619874 105.33568021 -48 104 C-49.32328571 102.67671429 -50.67776978 101.38384565 -52.0625 100.125 C-54.09872732 97.89171842 -54.35791991 96.84349755 -55 94 C-55.98020375 92.9805881 -56.97803008 91.97753644 -58 91 C-58 90.34 -58 89.68 -58 89 C-58.99 88.34 -59.98 87.68 -61 87 C-61.328125 84.72265625 -61.328125 84.72265625 -61.25 82.0625 C-61.23453125 81.18722656 -61.2190625 80.31195313 -61.203125 79.41015625 C-61 77 -61 77 -60 74 C-59.01 73.505 -59.01 73.505 -58 73 C-57.7834375 72.01 -57.7834375 72.01 -57.5625 71 C-57.2840625 70.01 -57.2840625 70.01 -57 69 C-55.515 68.505 -55.515 68.505 -54 68 C-53.896875 67.278125 -53.79375 66.55625 -53.6875 65.8125 C-52.56201018 61.20822347 -50.28122468 58.28122468 -47 55 C-46.505 54.175 -46.01 53.35 -45.5 52.5 C-44 50 -44 50 -42.375 48.4375 C-40.71515152 46.70220387 -40.40263517 45.33528396 -40 43 C-39.34 43 -38.68 43 -38 43 C-37.9175 42.29875 -37.835 41.5975 -37.75 40.875 C-36.60263558 36.47676973 -34.19117306 33.19117306 -31 30 C-30.67 29.01 -30.34 28.02 -30 27 C-29 26 -28 25 -27 24 C-26.505 22.515 -26.505 22.515 -26 21 C-25.34 20.34 -24.68 19.68 -24 19 C-23.67 18.34 -23.34 17.68 -23 17 C-22.34 17 -21.68 17 -21 17 C-20.79375 16.195625 -20.5875 15.39125 -20.375 14.5625 C-18.3473939 9.30915693 -15.75054126 3.41053398 -10.5625 0.75 C-6.81564477 -0.34664055 -3.90157264 -0.25584083 0 0 Z M-9 159 C-8 161 -8 161 -8 161 Z " fill="#9FD7F3" transform="translate(189,134)"/>
<path d="M0 0 C0.99 0.495 0.99 0.495 2 1 C1.89032902 5.27137254 1.7596501 9.54184766 1.625 13.8125 C1.5940625 15.02744141 1.563125 16.24238281 1.53125 17.49414062 C1.47324219 19.23920898 1.47324219 19.23920898 1.4140625 21.01953125 C1.3826416 22.09307861 1.3512207 23.16662598 1.31884766 24.27270508 C1 27 1 27 -1 30 C-1.2165625 31.485 -1.2165625 31.485 -1.4375 33 C-2.05243689 36.2796634 -2.64813028 36.84411943 -5 39 C-5.35412344 40.32796291 -5.68521554 41.66216607 -6 43 C-6.96885372 44.68496298 -7.96986723 46.35178756 -9 48 C-10.12920627 50.07021149 -10.94783639 51.75408585 -11.4375 54.0625 C-12.12357778 56.4256568 -13.28210511 57.28210511 -15 59 C-15.35412344 60.32796291 -15.68521554 61.66216607 -16 63 C-16.98189187 64.67739862 -17.98133771 66.34467377 -19 68 C-19.33 68.99 -19.66 69.98 -20 71 C-20.66 71 -21.32 71 -22 71 C-21.9175 71.721875 -21.835 72.44375 -21.75 73.1875 C-22.07592896 76.85420076 -23.65895924 78.23331546 -26 81 C-26.6425235 83.06874034 -26.6425235 83.06874034 -27 85 C-27.66 85.99 -28.32 86.98 -29 88 C-30.13747909 90.1327733 -31.10173178 92.25432946 -32 94.5 C-33.63277169 98.58192921 -35.70858444 102.2504109 -38 106 C-40.04119788 104.38405168 -42.04072937 102.7143618 -44 101 C-44 100.34 -44 99.68 -44 99 C-44.598125 98.731875 -45.19625 98.46375 -45.8125 98.1875 C-51.69933701 94.99178848 -54.26317723 88.86462023 -57 83 C-57 82.34 -57 81.68 -57 81 C-60.3 81 -63.6 81 -67 81 C-67 82.32 -67 83.64 -67 85 C-70.21451269 86.60725635 -73.43612536 86.05748185 -77 86 C-77.33 88.97 -77.66 91.94 -78 95 C-94.5 95.33 -111 95.66 -128 96 C-128.33 98.64 -128.66 101.28 -129 104 C-131.5 106.375 -131.5 106.375 -134 108 C-134.33 108.66 -134.66 109.32 -135 110 C-136.85625 110.0309375 -136.85625 110.0309375 -138.75 110.0625 C-139.44609375 110.07410156 -140.1421875 110.08570313 -140.859375 110.09765625 C-143.11893869 109.99457396 -144.87915982 109.79966105 -147 109 C-148.484375 107.37109375 -148.484375 107.37109375 -149.75 105.4375 C-150.17796875 104.79683594 -150.6059375 104.15617187 -151.046875 103.49609375 C-151.36140625 103.00238281 -151.6759375 102.50867188 -152 102 C-156.14715342 108.22073013 -153.72715463 116.36422685 -152.33984375 123.30078125 C-152.01022144 125.91881591 -152.1603097 127.52790478 -153 130 C-155.88594964 128.70629844 -158.06965259 127.53638671 -160 125 C-160.07421875 122.44140625 -160.07421875 122.44140625 -159.6875 119.5625 C-159.27397507 116.29431911 -159 113.31009095 -159 110 C-159 109.34 -159 108.68 -159 108 C-158.34 108 -157.68 108 -157 108 C-157.20625 107.0925 -157.4125 106.185 -157.625 105.25 C-158.03424783 101.70318545 -157.67554209 100.9787415 -156 98 C-155.61709538 96.00889599 -155.27395385 94.00899487 -155 92 C-156.485 91.505 -156.485 91.505 -158 91 C-158.6875 88.9375 -158.6875 88.9375 -159 87 C-159.66 87 -160.32 87 -161 87 C-161.33 86.01 -161.66 85.02 -162 84 C-162.680625 83.319375 -162.680625 83.319375 -163.375 82.625 C-165.38175043 80.61824957 -166.57389045 78.45290843 -168 76 C-170.23370363 72.57964132 -172.53509907 69.25619015 -175 66 C-173.87980469 65.93683594 -172.75960937 65.87367188 -171.60546875 65.80859375 C-170.13266687 65.686642 -168.66001676 65.56284751 -167.1875 65.4375 C-166.44951172 65.40076172 -165.71152344 65.36402344 -164.95117188 65.32617188 C-162.48322984 65.16115216 -162.48322984 65.16115216 -159 64 C-157.06135168 60.58830196 -157.06135168 60.58830196 -156 57 C-150.34233309 53.60539985 -145.97333386 55.36606056 -139 56 C-139 47.42 -139 38.84 -139 30 C-127 33 -127 33 -123 35 C-121.68 35 -120.36 35 -119 35 C-116.88705539 36.25770513 -114.97639791 37.54923983 -113 39 C-105.2754008 45.29170199 -105.2754008 45.29170199 -96 48 C-95.87625 48.969375 -95.7525 49.93875 -95.625 50.9375 C-95.315625 52.4534375 -95.315625 52.4534375 -95 54 C-94.34 54.33 -93.68 54.66 -93 55 C-92.64159778 57.32961443 -92.31151288 59.66365343 -92 62 C-91.3409159 63.66967972 -90.67349161 65.33607955 -90 67 C-89.25762437 69.98465305 -88.61700806 72.98716276 -88 76 C-86.72813251 70.8898181 -85.87079335 66.29747254 -86 61 C-85.505 60.01 -85.505 60.01 -85 59 C-84.72428521 55.91899659 -84.55336467 52.83828524 -84.37890625 49.75 C-84 47 -84 47 -82 45 C-81.60966195 42.87086605 -81.60966195 42.87086605 -81.5 40.4375 C-80.42335839 27.42335839 -80.42335839 27.42335839 -77 24 C-73.6052249 24.32852662 -72.32638764 25.67361236 -70 28 C-68.67511887 28.36548445 -67.33981486 28.6937566 -66 29 C-63.98473831 29.96887581 -61.98166034 30.9641321 -60 32 C-60 32.66 -60 33.32 -60 34 C-59.278125 33.9175 -58.55625 33.835 -57.8125 33.75 C-54.14579924 34.07592896 -52.76668454 35.65895924 -50 38 C-47.81785432 38.77833534 -47.81785432 38.77833534 -46 39 C-46 39.66 -46 40.32 -46 41 C-41.59531404 40.2857266 -39.1025762 39.1359876 -35.9375 35.875 C-34 34 -34 34 -32 34 C-31.731875 33.360625 -31.46375 32.72125 -31.1875 32.0625 C-30 30 -30 30 -27 29 C-26.814375 28.0409375 -26.814375 28.0409375 -26.625 27.0625 C-26.41875 26.381875 -26.2125 25.70125 -26 25 C-25.195625 24.71125 -24.39125 24.4225 -23.5625 24.125 C-22.716875 23.75375 -21.87125 23.3825 -21 23 C-19.77479736 19.99152582 -19.77479736 19.99152582 -19 17 C-18.01 16.505 -18.01 16.505 -17 16 C-16.67 15.34 -16.34 14.68 -16 14 C-15.34 14 -14.68 14 -14 14 C-13.67 13.34 -13.34 12.68 -13 12 C-12.67 11.34 -12.34 10.68 -12 10 C-11.34 10 -10.68 10 -10 10 C-9.67 9.01 -9.34 8.02 -9 7 C-8.01 6.34 -7.02 5.68 -6 5 C-5.319375 4.319375 -4.63875 3.63875 -3.9375 2.9375 C-2 1 -2 1 0 0 Z M-157 102 C-156 104 -156 104 -156 104 Z " fill="#26AFF3" transform="translate(357,232)"/>
<path d="M0 0 C0 0.66 0 1.32 0 2 C0.969375 2.268125 1.93875 2.53625 2.9375 2.8125 C3.948125 3.204375 4.95875 3.59625 6 4 C6.495 5.485 6.495 5.485 7 7 C7.99 7.33 8.98 7.66 10 8 C11.75390625 9.26953125 11.75390625 9.26953125 13.5625 10.8125 C14.16191406 11.31394531 14.76132812 11.81539062 15.37890625 12.33203125 C17.10958807 14.11275688 17.94038205 15.77254781 19 18 C19.70125 18.680625 20.4025 19.36125 21.125 20.0625 C23 22 23 22 23 25 C23.99 25 24.98 25 26 25 C26.36900958 31.39616613 26.36900958 31.39616613 24.625 34.25 C24.08875 34.8275 23.5525 35.405 23 36 C22.34 36.99 21.68 37.98 21 39 C20.34 39 19.68 39 19 39 C18.67 39.99 18.34 40.98 18 42 C16.37897032 43.71108689 14.70496537 45.37253306 13 47 C9.68331823 50.23954963 7.10587661 53.31714429 4.5625 57.1875 C4.046875 57.785625 3.53125 58.38375 3 59 C2.01 59 1.02 59 0 59 C0 59.70125 0 60.4025 0 61.125 C-1.36041653 65.03619753 -3.70244464 66.2533258 -7.08984375 68.47265625 C-9.20650409 70.16511881 -9.87746634 71.57356261 -11 74 C-11.78375 74.61875 -12.5675 75.2375 -13.375 75.875 C-16.17497413 77.92285796 -16.17497413 77.92285796 -18.0625 81.125 C-20.04594648 84.06817865 -20.96791902 84.53623677 -24 86 C-24.144375 86.639375 -24.28875 87.27875 -24.4375 87.9375 C-25 90 -25 90 -27.3125 91.875 C-30 93 -30 93 -32 92.4375 C-35.59891289 89.85078136 -38.87030553 87.12969447 -42 84 C-43.99665598 82.32932867 -45.99651034 80.66247014 -48 79 C-50 77 -50 77 -52 74.4375 C-53.76637442 71.94690328 -53.76637442 71.94690328 -56 71 C-56 70.01 -56 69.02 -56 68 C-56.66 68 -57.32 68 -58 68 C-58.75 66.3125 -58.75 66.3125 -59 64 C-57.25 61.5 -57.25 61.5 -55 59 C-54.505 58.34 -54.01 57.68 -53.5 57 C-52.41458533 55.55278044 -51.28310923 54.13973107 -50.125 52.75 C-48.42768904 50.55347994 -46.99793172 48.42488762 -45.5625 46.0625 C-43.98159263 43.47467624 -42.3499203 41.11360834 -40.375 38.8125 C-38.24982158 36.29584134 -36.67563175 33.81810795 -35 31 C-34.0206121 29.97980427 -33.02104551 28.97850195 -32 28 C-30.41158801 26.03036913 -29.10485034 24.21625384 -28 21.9375 C-26.9171984 19.83957189 -25.66125696 18.66125696 -24 17 C-23.484375 16.113125 -22.96875 15.22625 -22.4375 14.3125 C-21.963125 13.549375 -21.48875 12.78625 -21 12 C-20.34 12 -19.68 12 -19 12 C-18.731875 11.443125 -18.46375 10.88625 -18.1875 10.3125 C-16.89100504 7.78774666 -15.57523677 5.36285516 -14 3 C-13.34 3 -12.68 3 -12 3 C-11.9071875 2.071875 -11.9071875 2.071875 -11.8125 1.125 C-11 -1 -11 -1 -8.8125 -2.4375 C-5.01048108 -3.19790378 -3.24226857 -1.96044146 0 0 Z " fill="#47B9F4" transform="translate(319,145)"/>
<path d="M0 0 C0 0.66 0 1.32 0 2 C0.7425 1.938125 1.485 1.87625 2.25 1.8125 C5.52684677 2.03592137 6.5267752 2.92568243 9 5 C10.31836295 5.69580267 11.64791086 6.37224433 13 7 C13 7.66 13 8.32 13 9 C13.78375 9.12375 14.5675 9.2475 15.375 9.375 C18 10 18 10 20 12 C22.17164047 13.64745139 24.36264991 15.26535359 26.5625 16.875 C29.12016802 19.10476187 30.5483568 20.94390905 32 24 C32 28.83391501 30.77911421 30.14011915 28 34 C25.24742684 37.99768425 25.24742684 37.99768425 22.9375 42.25 C22 44 22 44 19 46 C17.98308736 47.99145391 16.98357352 49.99187074 16 52 C15.01904252 53.01868662 14.02297922 54.02351983 13 55 C12.67 55.99 12.34 56.98 12 58 C11.34 58 10.68 58 10 58 C9.34 59.98 8.68 61.96 8 64 C7.34 64 6.68 64 6 64 C5.87625 64.61875 5.7525 65.2375 5.625 65.875 C5 68 5 68 3 70 C1.9293436 72.04512102 0.96967282 74.12801144 0 76.22265625 C-1 78 -1 78 -3 79 C-3.495 80.485 -3.495 80.485 -4 82 C-6.46103687 84.88535357 -8.19985035 86.45712148 -12 87 C-13.31223496 83.06329512 -12.24296256 80.87511856 -11 77 C-10.67 77 -10.34 77 -10 77 C-9.54100187 71.57489716 -9.2607757 66.40829546 -10 61 C-11.96207278 58.68079555 -13.45410422 57.84297922 -16.25 56.7265625 C-16.8275 56.48679688 -17.405 56.24703125 -18 56 C-18 55.34 -18 54.68 -18 54 C-19.175625 54.0928125 -19.175625 54.0928125 -20.375 54.1875 C-21.24125 54.125625 -22.1075 54.06375 -23 54 C-23.66 53.01 -24.32 52.02 -25 51 C-26.66500443 50.65846063 -28.33178677 50.32550502 -30 50 C-31.02019573 49.0206121 -32.02149805 48.02104551 -33 47 C-34.32 46.67 -35.64 46.34 -37 46 C-36.34 43.03 -35.68 40.06 -35 37 C-34.34 37 -33.68 37 -33 37 C-31.50859979 33.37802806 -30.2125738 29.72433382 -29 26 C-28.01 26 -27.02 26 -26 26 C-25.67 24.02 -25.34 22.04 -25 20 C-24.34 20 -23.68 20 -23 20 C-22.62875 18.700625 -22.62875 18.700625 -22.25 17.375 C-20.92527551 13.79824388 -19.20397934 11.09934595 -17 8 C-14.89767656 5.1315587 -14.89767656 5.1315587 -14 2 C-13.34 2 -12.68 2 -12 2 C-11.67 1.01 -11.34 0.02 -11 -1 C-3.57142857 -2.42857143 -3.57142857 -2.42857143 0 0 Z " fill="#81CCF4" transform="translate(275,109)"/>
<path d="M0 0 C4.50411588 1.14810797 8.08992462 2.50189628 12 5 C12.99 5.33 13.98 5.66 15 6 C15.495 6.99 15.495 6.99 16 8 C16.763125 8.144375 17.52625 8.28875 18.3125 8.4375 C21.2868736 9.06004331 22.62680391 10.18054966 25 12 C25.99 12 26.98 12 28 12 C28.495 13.485 28.495 13.485 29 15 C30.134375 15.12375 31.26875 15.2475 32.4375 15.375 C33.613125 15.58125 34.78875 15.7875 36 16 C36.495 16.99 36.495 16.99 37 18 C39.52733235 18.65555119 39.52733235 18.65555119 42 19 C42 19.99 42 20.98 42 22 C42.66 22.33 43.32 22.66 44 23 C43.77192509 24.79458945 43.51677697 26.58575449 43.25 28.375 C43.11078125 29.37273437 42.9715625 30.37046875 42.828125 31.3984375 C42 34 42 34 39.95703125 35.23046875 C39.31121094 35.48441406 38.66539062 35.73835938 38 36 C37.40929986 37.94603274 37.40929986 37.94603274 37 40 C35.625 41.75 35.625 41.75 34 43 C33.01 43 32.02 43 31 43 C30.773125 43.639375 30.54625 44.27875 30.3125 44.9375 C29 47 29 47 26.4375 47.625 C25.633125 47.74875 24.82875 47.8725 24 48 C23.505 48.99 23.505 48.99 23 50 C17.35035334 51.20205248 11.75350608 51.09052719 6 51 C5.01 51 4.02 51 3 51 C-0.625 50.125 -0.625 50.125 -4 49 C-4.33 48.34 -4.66 47.68 -5 47 C-6.66128463 46.64080332 -8.32900023 46.31088368 -10 46 C-12.3125 44.9375 -12.3125 44.9375 -14 44 C-15.20628008 46.33214148 -16.1654738 48.49642139 -17 51 C-17.66 51 -18.32 51 -19 51 C-19 49.68 -19 48.36 -19 47 C-25.6 47 -32.2 47 -39 47 C-39.33 35.12 -39.66 23.24 -40 11 C-36.1225 10.979375 -32.245 10.95875 -28.25 10.9375 C-27.05407227 10.928396 -25.85814453 10.91929199 -24.62597656 10.90991211 C-18.14551076 10.89348306 -11.79969585 11.19176834 -5.35449219 11.88110352 C-2.97923046 12.19451254 -2.97923046 12.19451254 -1 11 C-0.5316735 8.41394668 -0.5316735 8.41394668 -0.375 5.4375 C-0.30023438 4.42558594 -0.22546875 3.41367188 -0.1484375 2.37109375 C-0.09945312 1.58863281 -0.05046875 0.80617187 0 0 Z " fill="#C6E5F3" transform="translate(219,150)"/>
<path d="M0 0 C2.125 2.3125 2.125 2.3125 4 5 C4.7425 5.556875 5.485 6.11375 6.25 6.6875 C7.11625 7.3371875 7.11625 7.3371875 8 8 C8 8.66 8 9.32 8 10 C8.61875 10.268125 9.2375 10.53625 9.875 10.8125 C12 12 12 12 14 15 C14.680625 15.886875 15.36125 16.77375 16.0625 17.6875 C18.49737651 21.85035339 18.92357139 24.18499749 19 29 C17.75 31.9375 17.75 31.9375 16 34 C14.515 34.495 14.515 34.495 13 35 C11.73629715 36.56985676 11.73629715 36.56985676 10.625 38.4375 C8.41523891 41.72209957 6.75988391 42.67895971 3 44 C2.67 44.680625 2.34 45.36125 2 46.0625 C1.67 46.701875 1.34 47.34125 1 48 C-1.625 48.75 -1.625 48.75 -4 49 C-4.0928125 49.8971875 -4.0928125 49.8971875 -4.1875 50.8125 C-5.32755807 53.88188712 -7.20767014 54.3499869 -10 56 C-11.2375 57.485 -11.2375 57.485 -12.5 59 C-14.93337784 61.92005341 -16.80735511 63.08441306 -20 65 C-20.90679554 66.01410862 -21.78072378 67.05827974 -22.625 68.125 C-25 71 -25 71 -28 72 C-29.33827304 73.66270287 -30.67189785 75.32916181 -32 77 C-32.66 77 -33.32 77 -34 77 C-34 77.66 -34 78.32 -34 79 C-34.66 79 -35.32 79 -36 79 C-36.495 78.01 -36.495 78.01 -37 77 C-37.70125 76.79375 -38.4025 76.5875 -39.125 76.375 C-43.49384443 74.28555267 -45.94216351 70.67086338 -49 67 C-50.84807624 65.10058831 -52.67161363 63.27973654 -54.6875 61.5625 C-56.51897928 59.38216752 -56.77463687 57.83138039 -57 55 C-55.671875 52.578125 -55.671875 52.578125 -53.75 50.25 C-52.81414062 49.08210938 -52.81414062 49.08210938 -51.859375 47.890625 C-50 46 -50 46 -47 45 C-46.32544228 43.67064147 -45.65988998 42.33670021 -45 41 C-43.08984375 39.18359375 -43.08984375 39.18359375 -40.9375 37.4375 C-37.66415861 34.81717494 -37.66415861 34.81717494 -36 31 C-35.030625 30.195625 -34.06125 29.39125 -33.0625 28.5625 C-30.0129947 26.36087775 -30.0129947 26.36087775 -29.0234375 24.0234375 C-27.84716784 21.69783565 -26.60883335 20.65115879 -24.5625 19.0625 C-21.59649912 16.6430293 -19.90680604 14.33691056 -18 11 C-17.01 10.67 -16.02 10.34 -15 10 C-14.566875 9.071875 -14.13375 8.14375 -13.6875 7.1875 C-10.75983523 1.65746655 -6.30555377 -1.2336953 0 0 Z " fill="#30B2F5" transform="translate(350,185)"/>
<path d="M0 0 C2 2 2 2 2 3 C4.31 3.66 6.62 4.32 9 5 C9 5.66 9 6.32 9 7 C10.3921875 6.9071875 10.3921875 6.9071875 11.8125 6.8125 C15.50121492 7.02948323 15.64093256 7.44434361 18 10 C19.9959722 10.67863055 21.99568551 11.34641919 24 12 C24.495 12.99 24.495 12.99 25 14 C27.52733235 14.65555119 27.52733235 14.65555119 30 15 C30.08082094 16.95766281 30.13910778 18.91626728 30.1875 20.875 C30.23970703 22.51082031 30.23970703 22.51082031 30.29296875 24.1796875 C30.19628906 25.11039063 30.09960938 26.04109375 30 27 C26.49109202 29.33927199 25.68849324 29.12823776 21.640625 28.66015625 C15.0112979 27.98183903 8.40792757 27.67724828 1.75 27.4375 C0.04263672 27.37272461 0.04263672 27.37272461 -1.69921875 27.30664062 C-4.46606496 27.20201199 -7.23297726 27.0998311 -10 27 C-9.75443359 28.5159375 -9.75443359 28.5159375 -9.50390625 30.0625 C-8.67672474 36.67995212 -8.89512224 43.34343143 -8.9375 50 C-8.94252513 51.36067544 -8.94708624 52.72135267 -8.95117188 54.08203125 C-8.96289531 57.38804011 -8.98082876 60.69402594 -9 64 C-15.435 64.495 -15.435 64.495 -22 65 C-23.81522218 68.87797465 -25.10915817 72.27269809 -25.8125 76.5 C-26.71794772 80.52958796 -27.85890105 83.67490671 -30.671875 86.7578125 C-36.01322954 89.60772985 -43.11561642 88.44028048 -49 88 C-49.495 88.99 -49.495 88.99 -50 90 C-50.01458252 89.41508789 -50.02916504 88.83017578 -50.04418945 88.22753906 C-50.1188357 85.56770603 -50.21543899 82.90910552 -50.3125 80.25 C-50.33505859 79.32960938 -50.35761719 78.40921875 -50.38085938 77.4609375 C-50.41630859 76.57148438 -50.45175781 75.68203125 -50.48828125 74.765625 C-50.51446533 73.94868164 -50.54064941 73.13173828 -50.56762695 72.29003906 C-51.08684058 69.54005383 -52.19083451 68.09770527 -54 66 C-53.33333333 64.66666667 -52.66666667 63.33333333 -52 62 C-51.690625 61.319375 -51.38125 60.63875 -51.0625 59.9375 C-49.93396101 57.87957596 -48.6522012 56.6522012 -47 55 C-46.505 54.175 -46.01 53.35 -45.5 52.5 C-44 50 -44 50 -42.375 48.4375 C-40.71515152 46.70220387 -40.40263517 45.33528396 -40 43 C-39.34 43 -38.68 43 -38 43 C-37.9175 42.29875 -37.835 41.5975 -37.75 40.875 C-36.60263558 36.47676973 -34.19117306 33.19117306 -31 30 C-30.67 29.01 -30.34 28.02 -30 27 C-29 26 -28 25 -27 24 C-26.67 23.01 -26.34 22.02 -26 21 C-25.34 20.34 -24.68 19.68 -24 19 C-23.67 18.34 -23.34 17.68 -23 17 C-22.34 17 -21.68 17 -21 17 C-20.79375 16.195625 -20.5875 15.39125 -20.375 14.5625 C-18.3473939 9.30915693 -15.75054126 3.41053398 -10.5625 0.75 C-6.81564477 -0.34664055 -3.90157264 -0.25584083 0 0 Z " fill="#70C7F3" transform="translate(189,134)"/>
<path d="M0 0 C2.3494053 0.60760482 4.68529088 1.27129528 7 2 C8.33130115 2.34135927 9.66358148 2.67925956 11 3 C11 3.66 11 4.32 11 5 C11.78375 4.938125 12.5675 4.87625 13.375 4.8125 C14.674375 4.9053125 14.674375 4.9053125 16 5 C16.66 5.99 17.32 6.98 18 8 C19.32488113 8.36548445 20.66018514 8.6937566 22 9 C24.75 10.4375 24.75 10.4375 27 12 C27 12.66 27 13.32 27 14 C27.763125 14.185625 28.52625 14.37125 29.3125 14.5625 C33.14210845 16.61089522 33.73999931 18.93999777 35 23 C34.88670624 26.85198785 32.49364914 29.20409035 30 32 C29.01 32.495 29.01 32.495 28 33 C27.855625 33.763125 27.71125 34.52625 27.5625 35.3125 C26.93969141 38.28814106 25.9140737 39.68716095 24 42 C23.36228217 43.27543566 22.75448042 44.56658365 22.1875 45.875 C21 48 21 48 18.875 50.0625 C16.65228929 51.90993327 16.65228929 51.90993327 17 55 C15.125 58.1875 15.125 58.1875 13 61 C12.34 61 11.68 61 11 61 C10.67 61.99 10.34 62.98 10 64 C2.25 63.25 2.25 63.25 0 61 C-2.57061311 60.35232207 -2.57061311 60.35232207 -5 60 C-5 59.34 -5 58.68 -5 58 C-6.0725 57.731875 -7.145 57.46375 -8.25 57.1875 C-11.63033566 56.11706038 -13.29625972 55.12436737 -16 53 C-16.99 53 -17.98 53 -19 53 C-19.66 52.67 -20.32 52.34 -21 52 C-21 51.34 -21 50.68 -21 50 C-21.763125 50.061875 -22.52625 50.12375 -23.3125 50.1875 C-26 50 -26 50 -27.6875 48.5625 C-28.120625 48.046875 -28.55375 47.53125 -29 47 C-29.66 46.67 -30.32 46.34 -31 46 C-30.505 43.03 -30.505 43.03 -30 40 C-29.34 40 -28.68 40 -28 40 C-27.814375 38.576875 -27.814375 38.576875 -27.625 37.125 C-27 34 -27 34 -25 32 C-24.3574765 29.93125966 -24.3574765 29.93125966 -24 28 C-23.01 28 -22.02 28 -21 28 C-21.12375 26.88625 -21.12375 26.88625 -21.25 25.75 C-20.92678485 22.1946333 -19.53739414 21.37880701 -17 19 C-17 18.01 -17 17.02 -17 16 C-16.34 15.34 -15.68 14.68 -15 14 C-14.67 13.175 -14.34 12.35 -14 11.5 C-13 9 -13 9 -11 7 C-10.690625 6.360625 -10.38125 5.72125 -10.0625 5.0625 C-7.54341521 0.17251188 -5.4867703 -0.52757407 0 0 Z " fill="#7ECCF4" transform="translate(223,86)"/>
<path d="M0 0 C0.66 0.33 1.32 0.66 2 1 C1.89032902 5.27137254 1.7596501 9.54184766 1.625 13.8125 C1.5940625 15.02744141 1.563125 16.24238281 1.53125 17.49414062 C1.49257813 18.65751953 1.45390625 19.82089844 1.4140625 21.01953125 C1.3826416 22.09307861 1.3512207 23.16662598 1.31884766 24.27270508 C1 27 1 27 -1 30 C-1.144375 30.99 -1.28875 31.98 -1.4375 33 C-2.05243689 36.2796634 -2.64813028 36.84411943 -5 39 C-5.35412344 40.32796291 -5.68521554 41.66216607 -6 43 C-6.96885372 44.68496298 -7.96986723 46.35178756 -9 48 C-10.12920627 50.07021149 -10.94783639 51.75408585 -11.4375 54.0625 C-12.12357778 56.4256568 -13.28210511 57.28210511 -15 59 C-15.35412344 60.32796291 -15.68521554 61.66216607 -16 63 C-16.98189187 64.67739862 -17.98133771 66.34467377 -19 68 C-19.495 69.485 -19.495 69.485 -20 71 C-20.66 71 -21.32 71 -22 71 C-21.9175 71.721875 -21.835 72.44375 -21.75 73.1875 C-22.07592896 76.85420076 -23.65895924 78.23331546 -26 81 C-26.6425235 83.06874034 -26.6425235 83.06874034 -27 85 C-27.66 85.99 -28.32 86.98 -29 88 C-29.68177416 89.32567199 -30.35191436 90.65753688 -31 92 C-35.08498488 92 -36.27994518 91.57378342 -39.6875 89.625 C-40.86892578 88.96371094 -40.86892578 88.96371094 -42.07421875 88.2890625 C-44 87 -44 87 -45 85 C-44.0625 82.875 -44.0625 82.875 -43 81 C-44.19109375 80.56880859 -44.19109375 80.56880859 -45.40625 80.12890625 C-49.09641101 78.26052927 -51.96633525 76.64024172 -54 73 C-55.59888305 65.18110536 -55.60729149 55.82697635 -54 48 C-52.45751953 46.1574707 -52.45751953 46.1574707 -51 45 C-51.680625 44.0925 -52.36125 43.185 -53.0625 42.25 C-55 39 -55 39 -54.75 36.625 C-54.5025 36.08875 -54.255 35.5525 -54 35 C-53.236875 35.474375 -52.47375 35.94875 -51.6875 36.4375 C-49.03589452 38.10106097 -49.03589452 38.10106097 -46 39 C-46 39.66 -46 40.32 -46 41 C-41.59531404 40.2857266 -39.1025762 39.1359876 -35.9375 35.875 C-34 34 -34 34 -32 34 C-31.731875 33.360625 -31.46375 32.72125 -31.1875 32.0625 C-30 30 -30 30 -27 29 C-26.87625 28.360625 -26.7525 27.72125 -26.625 27.0625 C-26.315625 26.0415625 -26.315625 26.0415625 -26 25 C-25.195625 24.71125 -24.39125 24.4225 -23.5625 24.125 C-22.716875 23.75375 -21.87125 23.3825 -21 23 C-19.77479736 19.99152582 -19.77479736 19.99152582 -19 17 C-18.34 16.67 -17.68 16.34 -17 16 C-16.67 15.34 -16.34 14.68 -16 14 C-15.34 14 -14.68 14 -14 14 C-13.67 13.34 -13.34 12.68 -13 12 C-12.67 11.34 -12.34 10.68 -12 10 C-11.34 10 -10.68 10 -10 10 C-9.67 9.01 -9.34 8.02 -9 7 C-8.01 6.34 -7.02 5.68 -6 5 C-5.319375 4.319375 -4.63875 3.63875 -3.9375 2.9375 C-2 1 -2 1 0 0 Z " fill="#0CA5F6" transform="translate(357,232)"/>
<path d="M0 0 C12 3 12 3 16 5 C17.32 5 18.64 5 20 5 C22.11235327 6.25735313 24.02216408 7.55239243 26 9 C27.66342769 10.19203287 29.33034707 11.37920243 31 12.5625 C31.804375 13.14128906 32.60875 13.72007812 33.4375 14.31640625 C36.19496533 16.1280946 39.02571787 17.5777052 42 19 C40.68723003 34.26515854 40.68723003 34.26515854 36.78515625 38.27734375 C33.04895528 40.21567358 30.0136045 40.9801254 25.8125 41.0625 C23.39740115 40.15012932 21.55164881 39.156224 19.375 37.8125 C16.30889608 35.68222527 16.30889608 35.68222527 13.9375 36.5 C13.298125 36.995 12.65875 37.49 12 38 C11.030625 38.639375 10.06125 39.27875 9.0625 39.9375 C7.14543926 41.22858172 5.22871759 42.52016721 3.3125 43.8125 C2.549375 44.204375 1.78625 44.59625 1 45 C0.01 44.67 -0.98 44.34 -2 44 C-2.5259375 45.3921875 -2.5259375 45.3921875 -3.0625 46.8125 C-4.52960093 50.28019311 -6.43038727 53.29588914 -8.5 56.4375 C-11.39368208 60.86673008 -13.38728447 64.97212216 -15 70 C-15.33 70 -15.66 70 -16 70 C-16 67.36 -16 64.72 -16 62 C-17.485 61.505 -17.485 61.505 -19 61 C-19.6875 58.9375 -19.6875 58.9375 -20 57 C-20.66 57 -21.32 57 -22 57 C-22.495 55.515 -22.495 55.515 -23 54 C-23.680625 53.319375 -23.680625 53.319375 -24.375 52.625 C-26.38175043 50.61824957 -27.57389045 48.45290843 -29 46 C-31.23370363 42.57964132 -33.53509907 39.25619015 -36 36 C-34.87980469 35.93683594 -33.75960937 35.87367188 -32.60546875 35.80859375 C-31.13266687 35.686642 -29.66001676 35.56284751 -28.1875 35.4375 C-27.44951172 35.40076172 -26.71152344 35.36402344 -25.95117188 35.32617188 C-23.48322984 35.16115216 -23.48322984 35.16115216 -20 34 C-18.06135168 30.58830196 -18.06135168 30.58830196 -17 27 C-11.34233309 23.60539985 -6.97333386 25.36606056 0 26 C0 17.42 0 8.84 0 0 Z " fill="#4FBBF3" transform="translate(218,262)"/>
<path d="M0 0 C4.6632002 0.31614917 6.18283498 1.62496178 9.25 4.9375 C10.73231751 6.58713468 10.73231751 6.58713468 13.6875 6.25 C13.6875 6.91 13.6875 7.57 13.6875 8.25 C15.0178125 8.62125 15.0178125 8.62125 16.375 9 C21.11400192 10.78830261 23.88706335 13.04934503 26.6875 17.25 C28.4537221 18.8163494 30.28422339 20.2773218 32.12890625 21.75 C33.6875 23.25 33.6875 23.25 34.6875 26.25 C35.368125 26.745 36.04875 27.24 36.75 27.75 C37.7090625 28.4925 37.7090625 28.4925 38.6875 29.25 C38.6875 30.24 38.6875 31.23 38.6875 32.25 C39.615625 32.62125 39.615625 32.62125 40.5625 33 C43.07645216 34.47879539 43.5409051 35.62921165 44.6875 38.25 C45.3475 38.91 46.0075 39.57 46.6875 40.25 C48.40253261 42.92545087 49.6794071 45.2257213 50.6875 48.25 C51.3475 48.58 52.0075 48.91 52.6875 49.25 C53.42151257 51.0362884 54.07751031 52.85514816 54.6875 54.6875 C56.02086865 58.87213295 56.02086865 58.87213295 58.6875 62.25 C58.6875 63.24 58.6875 64.23 58.6875 65.25 C53.38369919 63.99383665 49.63850639 61.27646821 45.30078125 58.13671875 C41.50404168 55.39557494 37.59630296 52.82754398 33.6875 50.25 C33.1925 51.24 33.1925 51.24 32.6875 52.25 C31.63103271 51.35788818 31.63103271 51.35788818 30.55322266 50.44775391 C27.73418705 48.28580481 24.9963191 46.69738147 21.8359375 45.0859375 C20.73765625 44.52132812 19.639375 43.95671875 18.5078125 43.375 C17.37085938 42.7975 16.23390625 42.22 15.0625 41.625 C12.79872509 40.46761958 10.53567006 39.30882973 8.2734375 38.1484375 C6.77369385 37.38539307 6.77369385 37.38539307 5.24365234 36.60693359 C2.6875 35.25 2.6875 35.25 -0.3125 33.25 C-3.03204667 32.67156636 -5.68979733 32.20593868 -8.4375 31.8125 C-9.27829102 31.68834717 -10.11908203 31.56419434 -10.98535156 31.4362793 C-25.02343509 29.47561877 -39.19226592 28.43600814 -53.3125 27.25 C-53.3125 26.92 -53.3125 26.59 -53.3125 26.25 C-51.43760537 26.22120469 -49.56255275 26.20286928 -47.6875 26.1875 C-46.42035156 26.17460937 -45.15320313 26.16171875 -43.84765625 26.1484375 C-40.49004241 26.17112919 -37.20964103 26.43579558 -33.87109375 26.7890625 C-21.63967334 28.21814171 -21.63967334 28.21814171 -10.5625 23.875 C-5.14132819 18.41918811 -4.75394666 12.0933364 -4.4609375 4.75 C-4.27316419 0.32250296 -4.27316419 0.32250296 0 0 Z " fill="#84CDF4" transform="translate(201.3125,215.75)"/>
<path d="M0 0 C0 8.91 0 17.82 0 27 C-3.63 27 -7.26 27 -11 27 C-14.46236232 27.34426035 -14.46236232 27.34426035 -17 29 C-18.05352843 31.30965848 -19.05719096 33.6429774 -20 36 C-23.27903131 37.37507765 -26.74284119 37.10062129 -30.25 37.0625 C-31.32765625 37.05347656 -32.4053125 37.04445313 -33.515625 37.03515625 C-34.33546875 37.02355469 -35.1553125 37.01195312 -36 37 C-36 36.34 -36 35.68 -36 35 C-37.485 34.505 -37.485 34.505 -39 34 C-39.2165625 33.1028125 -39.2165625 33.1028125 -39.4375 32.1875 C-40.1969311 29.23415685 -41.82445603 28.11338557 -44 26 C-45.36363208 24.02053408 -46.69418644 22.0180755 -48 20 C-49.3391165 18.19660529 -50.68408642 16.39886267 -52.046875 14.61328125 C-53 13 -53 13 -53 10 C-53.99 9.67 -54.98 9.34 -56 9 C-57.0625 7.125 -57.0625 7.125 -58 5 C-58.66 4.01 -59.32 3.02 -60 2 C-52.44651163 3.82325581 -52.44651163 3.82325581 -49 5.1875 C-44.5854991 6.38309399 -40.16618352 6.08309176 -36 4 C-31.82830656 3.85858666 -28.45804756 3.89733417 -24.375 4.8125 C-23.26125 4.874375 -22.1475 4.93625 -21 5 C-19.68940854 3.72217332 -18.38025025 2.44275025 -17.0859375 1.1484375 C-12.29813025 -1.48754627 -5.1774824 -0.22708256 0 0 Z M-38 32 C-37 34 -37 34 -37 34 Z " fill="#82CDF4" transform="translate(218,261)"/>
<path d="M0 0 C4.50411588 1.14810797 8.08992462 2.50189628 12 5 C12.99 5.33 13.98 5.66 15 6 C15.33 6.66 15.66 7.32 16 8 C16.763125 8.144375 17.52625 8.28875 18.3125 8.4375 C21.2868736 9.06004331 22.62680391 10.18054966 25 12 C25.99 12 26.98 12 28 12 C28.33 12.99 28.66 13.98 29 15 C30.134375 15.12375 31.26875 15.2475 32.4375 15.375 C33.613125 15.58125 34.78875 15.7875 36 16 C36.495 16.99 36.495 16.99 37 18 C39.52733235 18.65555119 39.52733235 18.65555119 42 19 C42 19.99 42 20.98 42 22 C42.66 22.33 43.32 22.66 44 23 C43.77192509 24.79458945 43.51677697 26.58575449 43.25 28.375 C43.11078125 29.37273437 42.9715625 30.37046875 42.828125 31.3984375 C42 34 42 34 39.95703125 35.23046875 C39.31121094 35.48441406 38.66539062 35.73835938 38 36 C37.40929986 37.94603274 37.40929986 37.94603274 37 40 C35.625 41.75 35.625 41.75 34 43 C33.01 43 32.02 43 31 43 C30.773125 43.639375 30.54625 44.27875 30.3125 44.9375 C29 47 29 47 26.4375 47.625 C25.633125 47.74875 24.82875 47.8725 24 48 C23.67 48.66 23.34 49.32 23 50 C18.03250989 51.09284782 13.98156294 50.79442191 9 50 C8.93006836 49.18321777 8.86013672 48.36643555 8.78808594 47.52490234 C8.45969365 43.80646686 8.10512263 40.09097393 7.75 36.375 C7.64042969 35.08980469 7.53085938 33.80460937 7.41796875 32.48046875 C7.29550781 31.23652344 7.17304688 29.99257812 7.046875 28.7109375 C6.94213867 27.56931152 6.83740234 26.42768555 6.72949219 25.25146484 C5.67985806 20.57307553 3.2021327 17.45084981 0.1875 13.8125 C-1.73001675 9.27101296 -0.69575711 4.7864736 0 0 Z " fill="#A9DBF4" transform="translate(219,150)"/>
<path d="M0 0 C3.3947751 0.32852662 4.67361236 1.67361236 7 4 C8.32488113 4.36548445 9.66018514 4.6937566 11 5 C13.01526169 5.96887581 15.01833966 6.9641321 17 8 C17 8.66 17 9.32 17 10 C18.65 10 20.3 10 22 10 C22.268125 10.86625 22.53625 11.7325 22.8125 12.625 C23.97111987 15.91791964 25.38209839 18.91127875 27 22 C26.01 22.66 25.02 23.32 24 24 C22.38184511 31.5232699 21.24860498 44.06396291 25.09277344 50.96044922 C27.86282267 53.94304684 31.21671029 55.63039999 35 57 C34.34 57.99 33.68 58.98 33 60 C28.343921 59.4609798 25.08976558 58.20748018 21.04296875 55.8671875 C19.37331055 54.90425781 19.37331055 54.90425781 17.66992188 53.921875 C17.09685303 53.58478516 16.52378418 53.24769531 15.93334961 52.90039062 C14.20927469 51.88778894 12.47478899 50.892981 10.74023438 49.8984375 C-4.27479619 41.16494021 -4.27479619 41.16494021 -8 37 C-8.73046875 33.32421875 -8.73046875 33.32421875 -8.1875 29.6875 C-8.03667969 28.47449219 -7.88585937 27.26148438 -7.73046875 26.01171875 C-7 23 -7 23 -5 21 C-4.60966195 18.87086605 -4.60966195 18.87086605 -4.5 16.4375 C-3.42335839 3.42335839 -3.42335839 3.42335839 0 0 Z " fill="#72C7F3" transform="translate(280,256)"/>
<path d="M0 0 C10.14096708 -0.17018671 20.02672195 0.2629892 30.125 1.3125 C31.37925781 1.43044922 32.63351563 1.54839844 33.92578125 1.66992188 C47.00842505 2.9917434 57.95042332 5.28531741 69.375 11.9375 C70.30699219 12.46279297 71.23898438 12.98808594 72.19921875 13.52929688 C74.80883263 15.00389482 77.40574879 16.49858623 80 18 C81.38750851 18.79386486 82.77545702 19.58696174 84.1640625 20.37890625 C85.09992188 20.91386719 86.03578125 21.44882812 87 22 C86.34 22.33 85.68 22.66 85 23 C83.25188512 22.40736821 81.52583879 21.74922283 79.8125 21.0625 C72.57751361 18.56647333 65.59317593 17.89980111 58 19 C55.54925777 20.39908273 54.04497681 22.00614761 52 24 C48.625 23.8125 48.625 23.8125 45 23 C41.30193233 22.71770476 37.97140019 22.58715492 34.5 24.0625 C28.38724574 26.35478285 21.91364311 23.52596439 16.2109375 21.11328125 C13.57745846 19.78723615 11.74862632 18.38449043 10 16 C10 15.34 10 14.68 10 14 C9.34 13.67 8.68 13.34 8 13 C6.7109375 11.4765625 6.7109375 11.4765625 5.375 9.625 C4.92898437 9.01914063 4.48296875 8.41328125 4.0234375 7.7890625 C3 6 3 6 3 3 C1.68 2.67 0.36 2.34 -1 2 C-0.67 1.34 -0.34 0.68 0 0 Z " fill="#ACDBF3" transform="translate(145,243)"/>
<path d="M0 0 C1.33926199 0.99204592 2.67098936 1.99426222 4 3 C5.2684375 3.928125 5.2684375 3.928125 6.5625 4.875 C9.12016802 7.10476187 10.5483568 8.94390905 12 12 C12 16.83391501 10.77911421 18.14011915 8 22 C5.24742684 25.99768425 5.24742684 25.99768425 2.9375 30.25 C2 32 2 32 -1 34 C-2.01691264 35.99145391 -3.01642648 37.99187074 -4 40 C-4.98095748 41.01868662 -5.97702078 42.02351983 -7 43 C-7.33 43.99 -7.66 44.98 -8 46 C-8.66 46 -9.32 46 -10 46 C-10.66 47.98 -11.32 49.96 -12 52 C-12.66 52 -13.32 52 -14 52 C-14.12375 52.61875 -14.2475 53.2375 -14.375 53.875 C-15 56 -15 56 -17 58 C-18.0706564 60.04512102 -19.03032718 62.12801144 -20 64.22265625 C-21 66 -21 66 -23 67 C-23.33 67.99 -23.66 68.98 -24 70 C-26.46103687 72.88535357 -28.19985035 74.45712148 -32 75 C-33.31223496 71.06329512 -32.24296256 68.87511856 -31 65 C-30.67 65 -30.34 65 -30 65 C-29.91925797 62.37438891 -29.8596377 59.75124324 -29.8125 57.125 C-29.78736328 56.37863281 -29.76222656 55.63226563 -29.73632812 54.86328125 C-29.6701236 52.43778172 -29.6701236 52.43778172 -30 49 C-30.99 48.34 -31.98 47.68 -33 47 C-33 46.01 -33 45.02 -33 44 C-31.7934375 43.96777344 -30.586875 43.93554688 -29.34375 43.90234375 C-25.95001998 43.47140576 -24.32063767 42.80104024 -22.09375 40.19140625 C-21.20540184 38.99911445 -20.34156663 37.78826009 -19.5 36.5625 C-18.56107842 35.26997344 -17.62096745 33.97831009 -16.6796875 32.6875 C-16.2269043 32.05328125 -15.77412109 31.4190625 -15.30761719 30.765625 C-13.55632831 28.40092725 -11.58673043 26.25371588 -9.625 24.0625 C-4.04981264 17.18223798 -2.02574792 8.48681759 0 0 Z " fill="#44B5F4" transform="translate(295,121)"/>
<path d="M0 0 C0.66 0.33 1.32 0.66 2 1 C1.89032902 5.27137254 1.7596501 9.54184766 1.625 13.8125 C1.5940625 15.02744141 1.563125 16.24238281 1.53125 17.49414062 C1.49257813 18.65751953 1.45390625 19.82089844 1.4140625 21.01953125 C1.3826416 22.09307861 1.3512207 23.16662598 1.31884766 24.27270508 C1 27 1 27 -1 30 C-1.39013716 31.9896995 -1.73202649 33.99019869 -2 36 C-3.75 36.625 -3.75 36.625 -6 37 C-7.32 36.34 -8.64 35.68 -10 35 C-12.31 37.31 -14.62 39.62 -17 42 C-28.10335196 38.89106145 -28.10335196 38.89106145 -32 36 C-32.33 35.34 -32.66 34.68 -33 34 C-31.71937515 32.2925002 -30.38232443 30.62626404 -29 29 C-28.34 29 -27.68 29 -27 29 C-26.938125 28.38125 -26.87625 27.7625 -26.8125 27.125 C-26.544375 26.42375 -26.27625 25.7225 -26 25 C-25.195625 24.71125 -24.39125 24.4225 -23.5625 24.125 C-22.2940625 23.568125 -22.2940625 23.568125 -21 23 C-19.77479736 19.99152582 -19.77479736 19.99152582 -19 17 C-18.34 16.67 -17.68 16.34 -17 16 C-16.67 15.34 -16.34 14.68 -16 14 C-15.34 14 -14.68 14 -14 14 C-13.67 13.34 -13.34 12.68 -13 12 C-12.67 11.34 -12.34 10.68 -12 10 C-11.34 10 -10.68 10 -10 10 C-9.67 9.01 -9.34 8.02 -9 7 C-8.01 6.34 -7.02 5.68 -6 5 C-5.319375 4.319375 -4.63875 3.63875 -3.9375 2.9375 C-2 1 -2 1 0 0 Z " fill="#30B1F4" transform="translate(357,232)"/>
<path d="M0 0 C2.81724453 1.28149672 5.62788457 2.57687233 8.4375 3.875 C9.64116211 4.42220703 9.64116211 4.42220703 10.86914062 4.98046875 C11.63291016 5.33496094 12.39667969 5.68945312 13.18359375 6.0546875 C13.89056396 6.37937012 14.59753418 6.70405273 15.32592773 7.03857422 C17 8 17 8 18 10 C18.01614884 11.6696807 17.96515778 13.34028286 17.87890625 15.0078125 C17.83056641 15.99394531 17.78222656 16.98007813 17.73242188 17.99609375 C17.67634766 19.02863281 17.62027344 20.06117188 17.5625 21.125 C17.51029297 22.16527344 17.45808594 23.20554688 17.40429688 24.27734375 C17.27439054 26.85185116 17.13941748 29.42599296 17 32 C8.7877322 30.08630031 8.7877322 30.08630031 5 27 C4.01 27 3.02 27 2 27 C1.34 26.67 0.68 26.34 0 26 C0 25.34 0 24.68 0 24 C-0.763125 24.061875 -1.52625 24.12375 -2.3125 24.1875 C-5 24 -5 24 -6.6875 22.5625 C-7.120625 22.046875 -7.55375 21.53125 -8 21 C-8.66 20.67 -9.32 20.34 -10 20 C-9.67 18.02 -9.34 16.04 -9 14 C-8.34 14 -7.68 14 -7 14 C-6.87625 13.05125 -6.7525 12.1025 -6.625 11.125 C-6 8 -6 8 -4 6 C-3.3574765 3.93125966 -3.3574765 3.93125966 -3 2 C-2.01 2 -1.02 2 0 2 C0 1.34 0 0.68 0 0 Z " fill="#7DCBF3" transform="translate(202,112)"/>
<path d="M0 0 C18.74874372 8.23115578 18.74874372 8.23115578 21.75 15.921875 C22.08080196 18.6716663 21.33851755 19.57344729 19.6875 21.75 C19.01267578 22.67039063 19.01267578 22.67039063 18.32421875 23.609375 C17.88722656 24.06828125 17.45023438 24.5271875 17 25 C16.34 25 15.68 25 15 25 C14.67 25.99 14.34 26.98 14 28 C6.25 27.25 6.25 27.25 4 25 C2.35 24.67 0.7 24.34 -1 24 C-0.67 16.08 -0.34 8.16 0 0 Z " fill="#A9DCF4" transform="translate(219,122)"/>
<path d="M0 0 C2.3494053 0.60760482 4.68529088 1.27129528 7 2 C8.33130115 2.34135927 9.66358148 2.67925956 11 3 C11 3.66 11 4.32 11 5 C11.99 5 12.98 5 14 5 C14 8.63 14 12.26 14 16 C4.76 16 -4.48 16 -14 16 C-15 14 -15 14 -14.1875 11.5 C-13 9 -13 9 -11 7 C-10.690625 6.360625 -10.38125 5.72125 -10.0625 5.0625 C-7.54341521 0.17251188 -5.4867703 -0.52757407 0 0 Z " fill="#98D6F3" transform="translate(223,86)"/>
<path d="M0 0 C1.11375 0.61875 1.11375 0.61875 2.25 1.25 C3.466875 1.745 4.68375 2.24 5.9375 2.75 C9.25 4.25 9.25 4.25 10.25 6.25 C12.77733235 6.90555119 12.77733235 6.90555119 15.25 7.25 C15.33082094 9.20766281 15.38910778 11.16626728 15.4375 13.125 C15.48970703 14.76082031 15.48970703 14.76082031 15.54296875 16.4296875 C15.44628906 17.36039063 15.34960938 18.29109375 15.25 19.25 C11.57634031 21.69910646 9.15318571 21.33928688 4.95703125 21.0078125 C4.25100266 20.96059052 3.54497406 20.91336853 2.81755066 20.86471558 C0.56502199 20.71169811 -1.68608553 20.54354996 -3.9375 20.375 C-5.46542551 20.26853225 -6.99342014 20.16305159 -8.52148438 20.05859375 C-12.265221 19.80050515 -16.00775429 19.52884267 -19.75 19.25 C-19.75 18.92 -19.75 18.59 -19.75 18.25 C-14.8 18.25 -9.85 18.25 -4.75 18.25 C-4.75 12.31 -4.75 6.37 -4.75 0.25 C-1.75 -0.75 -1.75 -0.75 0 0 Z " fill="#7ECBF4" transform="translate(203.75,141.75)"/>
<path d="M0 0 C2.66666667 1.33333333 5.33333333 2.66666667 8 4 C8.68578125 4.31195313 9.3715625 4.62390625 10.078125 4.9453125 C12.1244188 6.06827861 13.35723892 7.35723892 15 9 C16.53545874 9.9414298 18.10021774 10.83634864 19.6875 11.6875 C20.49574219 12.12449219 21.30398438 12.56148438 22.13671875 13.01171875 C22.75160156 13.33785156 23.36648438 13.66398437 24 14 C22.83838358 18.90120611 20.62177215 22.70982739 18 27 C15.95880212 25.38405168 13.95927063 23.7143618 12 22 C12 21.34 12 20.68 12 20 C11.401875 19.731875 10.80375 19.46375 10.1875 19.1875 C6.11025995 16.97414112 4.23507261 14.00450509 2 10 C1.4225 8.989375 0.845 7.97875 0.25 6.9375 C-1.09952347 3.76611984 -0.99110257 3.11393712 0 0 Z " fill="#4ABAF3" transform="translate(301,311)"/>
<path d="M0 0 C0.66 0.33 1.32 0.66 2 1 C3.57933493 8.1070072 3.1118508 15.7669813 3 23 C0.4374282 23.02710123 -2.12485365 23.04688771 -4.6875 23.0625 C-5.40873047 23.07087891 -6.12996094 23.07925781 -6.87304688 23.08789062 C-10.71555382 23.10543632 -14.26639526 22.93524221 -18 22 C-17.401875 21.278125 -16.80375 20.55625 -16.1875 19.8125 C-13.99826745 17.15865248 -13.99826745 17.15865248 -12.6875 14.5625 C-10.7134965 11.56493914 -8.40780118 9.74117944 -5.6484375 7.48828125 C-3.54813167 5.59203357 -2.28750286 3.50347778 -1 1 C-0.67 0.67 -0.34 0.34 0 0 Z " fill="#45B8F4" transform="translate(333,195)"/>
<path d="M0 0 C4.86168729 1.62056243 6.79385664 4.58771328 9 9 C9.70125 9.680625 10.4025 10.36125 11.125 11.0625 C13 13 13 13 13 16 C13.99 16 14.98 16 16 16 C16.36900958 22.39616613 16.36900958 22.39616613 14.625 25.25 C14.08875 25.8275 13.5525 26.405 13 27 C12.34 27.99 11.68 28.98 11 30 C10.34 30 9.68 30 9 30 C8.67 30.99 8.34 31.98 8 33 C5.27386294 30.27386294 5.80290822 28.67557351 5.75 24.875 C5.41603146 18.92250194 4.18660906 16.22178317 0.3046875 11.84765625 C-1.99356412 8.59294662 -1.46516972 5.85426336 -1 2 C-0.67 1.34 -0.34 0.68 0 0 Z " fill="#29ADF5" transform="translate(329,154)"/>
<path d="M0 0 C0.928125 0.474375 1.85625 0.94875 2.8125 1.4375 C5.91196237 3.04488875 5.91196237 3.04488875 9 4 C9 4.66 9 5.32 9 6 C11.09495303 7.06043651 11.09495303 7.06043651 14 7 C16.89066179 5.26346566 19.44156208 3.19022601 22 1 C22.87398438 1.70576172 22.87398438 1.70576172 23.765625 2.42578125 C26.66853632 4.47101422 29.57958099 5.14489525 33 6 C33 8.31 33 10.62 33 13 C28.77135555 13.17449702 24.54363749 13.28092495 20.3125 13.375 C18.51522461 13.45041016 18.51522461 13.45041016 16.68164062 13.52734375 C8.00437216 13.67236774 8.00437216 13.67236774 5.12255859 11.74316406 C3.79296875 10.1640625 3.79296875 10.1640625 2 7 C1.34 6.01 0.68 5.02 0 4 C0 2.68 0 1.36 0 0 Z " fill="#31B3F5" transform="translate(302,267)"/>
<path d="M0 0 C0 7.26 0 14.52 0 22 C-4.95 22 -9.9 22 -15 22 C-13.09976863 18.19953726 -12.57540166 17.48896412 -9.375 15.25 C-6.67395039 13.1260859 -6.67395039 13.1260859 -5.68359375 9.9765625 C-5.72613281 9.28304688 -5.76867187 8.58953125 -5.8125 7.875 C-6 4 -6 4 -4.125 1.5 C-2 0 -2 0 0 0 Z " fill="#4FBCF2" transform="translate(318,397)"/>
<path d="M0 0 C0.99 0 1.98 0 3 0 C5.79080349 6.95068039 6.63419196 13.54508438 7 21 C3 21 3 21 0.6875 19.6875 C-1.70248178 15.88123273 -0.95588358 12.99883244 -0.359375 8.65625 C0.08938174 5.78609406 0.08938174 5.78609406 0 2 C0 1.34 0 0.68 0 0 Z " fill="#48B7F4" transform="translate(198,340)"/>
<path d="M0 0 C0.99 0.33 1.98 0.66 3 1 C3.02927916 4.99998437 3.04689219 8.99994076 3.0625 13 C3.07087891 14.12535156 3.07925781 15.25070313 3.08789062 16.41015625 C3.10533416 22.37584397 2.91781223 28.10287573 2 34 C1.67 34 1.34 34 1 34 C1 31.36 1 28.72 1 26 C-4.28 26 -9.56 26 -15 26 C-15 25.34 -15 24.68 -15 24 C-13.083412 23.97287847 -11.1667127 23.95354903 -9.25 23.9375 C-7.64898437 23.92009766 -7.64898437 23.92009766 -6.015625 23.90234375 C-3 24 -3 24 1 25 C0.67 18.07 0.34 11.14 0 4 C-1.98 4.99 -1.98 4.99 -4 6 C-1.125 1.125 -1.125 1.125 0 0 Z " fill="#53BDF2" transform="translate(177,135)"/>
<path d="M0 0 C-1.18596381 1.42315657 -2.37255071 2.84579915 -3.5625 4.265625 C-4.5124048 5.41170579 -5.45023718 6.56791281 -6.375 7.734375 C-7.5406545 9.19144313 -8.766545 10.59986189 -10 12 C-10.66 12 -11.32 12 -12 12 C-12.12375 12.639375 -12.2475 13.27875 -12.375 13.9375 C-12.58125 14.618125 -12.7875 15.29875 -13 16 C-13.66 16.33 -14.32 16.66 -15 17 C-11.73935595 4.00367409 -11.73935595 4.00367409 -9 0 C-5.69898453 -1.26962134 -3.32473779 -1.10824593 0 0 Z " fill="#29B2F5" transform="translate(307,219)"/>
<path d="M0 0 C0.33 0 0.66 0 1 0 C1 5.94 1 11.88 1 18 C-1.92824652 17.02391783 -3.61426621 15.89213369 -6 14 C-5.67 12.02 -5.34 10.04 -5 8 C-4.34 8 -3.68 8 -3 8 C-2.87625 7.05125 -2.7525 6.1025 -2.625 5.125 C-2 2 -2 2 0 0 Z " fill="#66C5F4" transform="translate(198,118)"/>
<path d="M0 0 C0.33 0.99 0.66 1.98 1 3 C11.23 3 21.46 3 32 3 C32 3.33 32 3.66 32 4 C21.77 4 11.54 4 1 4 C1 6.97 1 9.94 1 13 C-6.59 13 -14.18 13 -22 13 C-22 12.01 -22 11.02 -22 10 C-21.18273437 10.15339844 -20.36546875 10.30679688 -19.5234375 10.46484375 C-15.55375228 11.0677782 -11.63053967 11.34157964 -7.625 11.5625 C-6.88894531 11.60568359 -6.15289062 11.64886719 -5.39453125 11.69335938 C-3.59651932 11.79843799 -1.79828042 11.89962093 0 12 C0 8.04 0 4.08 0 0 Z " fill="#1FABF4" transform="translate(336,206)"/>
<path d="M0 0 C0 0.66 0 1.32 0 2 C0.99 2.33 1.98 2.66 3 3 C0.88074396 5.11925604 -3.6196093 4.41831017 -6.5625 4.5625 C-7.36880859 4.60568359 -8.17511719 4.64886719 -9.00585938 4.69335938 C-11.00368805 4.79975262 -13.0018207 4.90040888 -15 5 C-14.67 4.01 -14.34 3.02 -14 2 C-13.34 2 -12.68 2 -12 2 C-11.67 1.01 -11.34 0.02 -11 -1 C-3.57142857 -2.42857143 -3.57142857 -2.42857143 0 0 Z " fill="#67CCF4" transform="translate(275,109)"/>
<path d="M0 0 C0.33 0 0.66 0 1 0 C0.67 4.62 0.34 9.24 0 14 C-0.33 14 -0.66 14 -1 14 C-1 11.36 -1 8.72 -1 6 C-6.28 6 -11.56 6 -17 6 C-17 5.34 -17 4.68 -17 4 C-15.083412 3.97287847 -13.1667127 3.95354903 -11.25 3.9375 C-9.64898437 3.92009766 -9.64898437 3.92009766 -8.015625 3.90234375 C-5.46631499 3.98489913 -3.42066409 4.25382442 -1 5 C-0.67 3.35 -0.34 1.7 0 0 Z " fill="#58BEF2" transform="translate(179,155)"/>
<path d="M0 0 C0 0.33 0 0.66 0 1 C-2.31 1.33 -4.62 1.66 -7 2 C-7.06058594 2.59167969 -7.12117187 3.18335938 -7.18359375 3.79296875 C-7.62012371 7.90978208 -8.08671346 11.95544533 -9 16 C-9.33 16 -9.66 16 -10 16 C-10.02708567 14.39592672 -10.04643483 12.7917215 -10.0625 11.1875 C-10.07410156 10.29417969 -10.08570313 9.40085937 -10.09765625 8.48046875 C-10 6 -10 6 -9 3 C-10.65 3.33 -12.3 3.66 -14 4 C-13 2 -13 2 -10.9375 0.875 C-7.13274727 -0.2583306 -3.9631172 -0.13434296 0 0 Z " fill="#65C3F3" transform="translate(190,265)"/>
<path d="M0 0 C0 0.99 0 1.98 0 3 C-5.75 2.125 -5.75 2.125 -8 1 C-8 0.34 -8 -0.32 -8 -1 C-4.59745511 -2.2151946 -3.06748874 -1.86240388 0 0 Z " fill="#33B7F5" transform="translate(317,144)"/>
<path d="M0 0 C0.33 0 0.66 0 1 0 C1 5.94 1 11.88 1 18 C0.01 17.67 -0.98 17.34 -2 17 C-1.34 16.67 -0.68 16.34 0 16 C-0.0721875 15.16855469 -0.144375 14.33710938 -0.21875 13.48046875 C-0.3115625 12.39378906 -0.404375 11.30710938 -0.5 10.1875 C-0.5928125 9.10855469 -0.685625 8.02960938 -0.78125 6.91796875 C-1 4 -1 4 -1 1 C-0.67 0.67 -0.34 0.34 0 0 Z " fill="#3AC5F7" transform="translate(198,118)"/>
<path d="M0 0 C2 1 2 1 2 1 Z M-3 1 C-2.34 1.66 -1.68 2.32 -1 3 C-2.32 3.99 -3.64 4.98 -5 6 C-5.33 5.34 -5.66 4.68 -6 4 C-5.01 3.01 -4.02 2.02 -3 1 Z M-9 7 C-8.01 7.33 -7.02 7.66 -6 8 C-7.485 9.485 -7.485 9.485 -9 11 C-9.99 10.67 -10.98 10.34 -12 10 C-11.34 10 -10.68 10 -10 10 C-9.67 9.01 -9.34 8.02 -9 7 Z " fill="#209BFA" transform="translate(357,232)"/>
<path d="M0 0 C0.66 0.33 1.32 0.66 2 1 C0.35 2.98 -1.3 4.96 -3 7 C-2.01 7.33 -1.02 7.66 0 8 C-2.31 7.67 -4.62 7.34 -7 7 C-4.66666667 4.66666667 -2.33333333 2.33333333 0 0 Z " fill="#71C7F3" transform="translate(190,238)"/>
<path d="M0 0 C0.99 0.33 1.98 0.66 3 1 C2.67 1.99 2.34 2.98 2 4 C-1.0625 5.1875 -1.0625 5.1875 -4 6 C-1.125 1.125 -1.125 1.125 0 0 Z " fill="#47AEF8" transform="translate(177,135)"/>
<path d="M0 0 C0.99 0.33 1.98 0.66 3 1 C2.3125 2.9375 2.3125 2.9375 1 5 C-1.625 5.75 -1.625 5.75 -4 6 C-3.67 5.34 -3.34 4.68 -3 4 C-2.34 4 -1.68 4 -1 4 C-0.67 2.68 -0.34 1.36 0 0 Z " fill="#1DA3F6" transform="translate(331,257)"/>
<path d="M0 0 C0.33 0.66 0.66 1.32 1 2 C1.66 2.33 2.32 2.66 3 3 C2.01 3.33 1.02 3.66 0 4 C-0.3721042 5.32303717 -0.70630173 6.65737935 -1 8 C-1.99 8.495 -1.99 8.495 -3 9 C-2.01 6.03 -1.02 3.06 0 0 Z " fill="#14A3F9" transform="translate(295,227)"/>
<path d="M0 0 C2.475 0.495 2.475 0.495 5 1 C4.67 2.65 4.34 4.3 4 6 C2.62437146 4.71034824 1.29233607 3.37310707 0 2 C0 1.34 0 0.68 0 0 Z " fill="#9ED9F5" transform="translate(263,166)"/>
<path d="M0 0 C0.33 0 0.66 0 1 0 C1 2.64 1 5.28 1 8 C0.67 8 0.34 8 0 8 C0 5.36 0 2.72 0 0 Z " fill="#0040FF" transform="translate(262,370)"/>
<path d="M0 0 C1 4 1 4 1 4 Z " fill="#007FFF" transform="translate(195,361)"/>
<path d="M0 0 C3 1 3 1 3 1 Z " fill="#0055FF" transform="translate(278,343)"/>
<path d="" fill="#002AFF" transform="translate(0,0)"/>
<path d="" fill="#009CFF" transform="translate(0,0)"/>
<path d="" fill="#00D4FF" transform="translate(0,0)"/>
<path d="M0 0 C2 1 2 1 2 1 Z " fill="#0000FF" transform="translate(264,343)"/>
<path d="" fill="#0040FF" transform="translate(0,0)"/>
<path d="" fill="#0000FF" transform="translate(0,0)"/>
<path d="M0 0 C2 1 2 1 2 1 Z " fill="#00FFFF" transform="translate(345,183)"/>
<path d="M0 0 C2 1 2 1 2 1 Z " fill="#007FFF" transform="translate(310,141)"/>
<path d="M0 0 C2 1 2 1 2 1 Z " fill="#40BFFF" transform="translate(228,87)"/>
<path d="" fill="#0000FF" transform="translate(0,0)"/>
<path d="" fill="#0080FF" transform="translate(0,0)"/>
<path d="" fill="#0000FF" transform="translate(0,0)"/>
<path d="" fill="#00AAFF" transform="translate(0,0)"/>
<path d="" fill="#00FFFF" transform="translate(0,0)"/>
<path d="" fill="#0000FF" transform="translate(0,0)"/>
<path d="" fill="#0000FF" transform="translate(0,0)"/>
<path d="" fill="#0000FF" transform="translate(0,0)"/>
<path d="" fill="#00FFFF" transform="translate(0,0)"/>
<path d="" fill="#0000FF" transform="translate(0,0)"/>
<path d="" fill="#55AAFF" transform="translate(0,0)"/>
<path d="" fill="#0080FF" transform="translate(0,0)"/>
<path d="" fill="#0000FF" transform="translate(0,0)"/>
<path d="" fill="#00FFFF" transform="translate(0,0)"/>
<path d="" fill="#00FFFF" transform="translate(0,0)"/>
<path d="" fill="#0000FF" transform="translate(0,0)"/>
<path d="" fill="#55AAFF" transform="translate(0,0)"/>
<path d="" fill="#0000FF" transform="translate(0,0)"/>
<path d="" fill="#80FFFF" transform="translate(0,0)"/>
<path d="" fill="#00FFFF" transform="translate(0,0)"/>
<path d="" fill="#0080FF" transform="translate(0,0)"/>
<path d="" fill="#00FFFF" transform="translate(0,0)"/>
<path d="" fill="#0000FF" transform="translate(0,0)"/>
<path d="" fill="#00FFFF" transform="translate(0,0)"/>
<path d="" fill="#00FFFF" transform="translate(0,0)"/>
<path d="" fill="#80FFFF" transform="translate(0,0)"/>
<path d="" fill="#00FFFF" transform="translate(0,0)"/>
<path d="" fill="#0000FF" transform="translate(0,0)"/>
<path d="" fill="#0000FF" transform="translate(0,0)"/>
<path d="" fill="#00AAFF" transform="translate(0,0)"/>
<path d="" fill="#0000FF" transform="translate(0,0)"/>
<path d="" fill="#0000FF" transform="translate(0,0)"/>
<path d="" fill="#0000FF" transform="translate(0,0)"/>
<path d="" fill="#0000FF" transform="translate(0,0)"/>
<path d="" fill="#0000FF" transform="translate(0,0)"/>
<path d="" fill="#0000FF" transform="translate(0,0)"/>
<path d="" fill="#0000FF" transform="translate(0,0)"/>
<path d="" fill="#0000FF" transform="translate(0,0)"/>
<path d="" fill="#FFFFFF" transform="translate(0,0)"/>
<path d="" fill="#0080FF" transform="translate(0,0)"/>
<path d="" fill="#0000FF" transform="translate(0,0)"/>
<path d="" fill="#FFFFFF" transform="translate(0,0)"/>
<path d="" fill="#FFFFFF" transform="translate(0,0)"/>
<path d="" fill="#00FFFF" transform="translate(0,0)"/>
<path d="" fill="#0080FF" transform="translate(0,0)"/>
<path d="" fill="#0000FF" transform="translate(0,0)"/>
<path d="" fill="#0000FF" transform="translate(0,0)"/>
<path d="" fill="#00FFFF" transform="translate(0,0)"/>
<path d="" fill="#0000FF" transform="translate(0,0)"/>
<path d="" fill="#0000FF" transform="translate(0,0)"/>
<path d="" fill="#8080FF" transform="translate(0,0)"/>
<path d="" fill="#0000FF" transform="translate(0,0)"/>
<path d="" fill="#00FFFF" transform="translate(0,0)"/>
<path d="" fill="#0000FF" transform="translate(0,0)"/>
<path d="" fill="#8080FF" transform="translate(0,0)"/>
<path d="" fill="#0000FF" transform="translate(0,0)"/>
<path d="" fill="#0000FF" transform="translate(0,0)"/>
<path d="" fill="#0000FF" transform="translate(0,0)"/>
<path d="" fill="#0000FF" transform="translate(0,0)"/>
<path d="" fill="#00FFFF" transform="translate(0,0)"/>
<path d="" fill="#80FFFF" transform="translate(0,0)"/>
<path d="" fill="#8080FF" transform="translate(0,0)"/>
<path d="" fill="#0080FF" transform="translate(0,0)"/>
<path d="" fill="#00FFFF" transform="translate(0,0)"/>
<path d="" fill="#AAAAFF" transform="translate(0,0)"/>
<path d="" fill="#0000FF" transform="translate(0,0)"/>
<path d="" fill="#55AAFF" transform="translate(0,0)"/>
<path d="" fill="#0000FF" transform="translate(0,0)"/>
<path d="" fill="#FFFFFF" transform="translate(0,0)"/>
<path d="" fill="#FFFFFF" transform="translate(0,0)"/>
</svg>
